<?xml version="1.0" encoding="UTF-8"?>
<svg width="20px" height="11px" viewBox="0 0 20 11" version="1.1" xmlns="http://www.w3.org/2000/svg" xmlns:xlink="http://www.w3.org/1999/xlink">
    <title>1C86A0EC-FFB9-4BCA-B754-819C480DC60D</title>
    <defs>
        <polygon id="path-1" points="0 0 6.71719746 0 6.71719746 10.6782673 0 10.6782673"></polygon>
    </defs>
    <g id="Page-1" stroke="none" stroke-width="1" fill="none" fill-rule="evenodd">
        <g id="MailWeb" transform="translate(-932.000000, -92.000000)">
            <g id="html" transform="translate(910.000000, 72.000000)">
                <g id="Group-8" transform="translate(22.000000, 20.000000)">
                    <path d="M19.8517613,5.03691794 L13.9647615,0.0971512416 C13.7891789,-0.0502053549 13.5273096,-0.0273235735 13.3800049,0.148310961 C13.2325964,0.323945496 13.2554782,0.585710999 13.4311127,0.733171368 L18.9389806,5.35472045 L13.4639567,9.94508598 C13.2882702,10.0923907 13.2652847,10.3542081 13.4124856,10.5298945 C13.4946214,10.6277517 13.6122991,10.6782888 13.730807,10.6782888 C13.8249284,10.6782888 13.9195687,10.6464307 13.9972941,10.5812618 L19.8516057,5.67293806 C19.9456752,5.59412304 20,5.47769057 20,5.354928 C20,5.2322692 19.945779,5.11578485 19.8517613,5.03691794" id="Fill-1" fill="#1D1D1B"></path>
                    <g id="Group-5" transform="translate(0.000000, 0.000032)">
                        <mask id="mask-2" fill="white">
                            <use xlink:href="#path-1"></use>
                        </mask>
                        <g id="Clip-4"></g>
                        <path d="M6.62004179,0.148289481 C6.47273708,-0.0273450535 6.21086781,-0.0502268349 6.03523327,0.0971297616 L0.148285358,5.03689646 C0.0542676987,5.11576337 -5.18861259e-06,5.23219583 -5.18861259e-06,5.35490652 C-5.18861259e-06,5.47766909 0.0543714709,5.59404967 0.14838913,5.67291658 L6.00270067,10.5812403 C6.08047797,10.6464611 6.17506638,10.6782673 6.26918781,10.6782673 C6.38764384,10.6782673 6.50537346,10.6277303 6.58750919,10.529873 C6.73476202,10.3541866 6.71177646,10.0923692 6.53609004,9.9450645 L1.06101419,5.35469897 L6.56893396,0.733098002 C6.74451661,0.58568952 6.76745028,0.323924016 6.62004179,0.148289481" id="Fill-3" fill="#1D1D1B" mask="url(#mask-2)"></path>
                    </g>
                    <path d="M11.3075278,0.012322615 C11.0848844,-0.0428842226 10.8598543,0.0925904512 10.8045956,0.315026271 L8.35712701,10.1631167 C8.3018164,10.3855525 8.43734296,10.6107383 8.65983067,10.6660489 C8.69345288,10.6744025 8.72712697,10.6783978 8.76023032,10.6783978 C8.94644963,10.6783978 9.11585783,10.5522107 9.16276288,10.3633452 L11.6102314,0.51525483 C11.6654901,0.292715237 11.5300155,0.0675294525 11.3075278,0.012322615" id="Fill-6" fill="#1D1D1B"></path>
                </g>
            </g>
        </g>
    </g>
</svg>