<svg height='100px' width='100px'  fill="#000000" xmlns="http://www.w3.org/2000/svg" xmlns:xlink="http://www.w3.org/1999/xlink" version="1.1" x="0px" y="0px" viewBox="0 0 100 100" style="enable-background:new 0 0 100 100;" xml:space="preserve"><style type="text/css">
	.st0{display:none;}
</style><g><path d="M66.4119034,5.030273h-7.9517517H43.6039505h-7.9514923c-3.6846962,0-6.6719723,2.9871459-6.6719723,6.6720386V88.059433   c0,3.8331528,3.1072865,6.940567,6.9403744,6.940567h12.7941322h4.6343765h12.7938728   c3.8333435,0,6.9406357-3.1074142,6.9406357-6.940567V11.7023115C73.0838776,8.0174189,70.0965958,5.030273,66.4119034,5.030273z    M70.3668213,88.1679916c0,2.2651825-1.8363647,4.1014786-4.1014862,4.1014786h-5.1230164H40.922039h-5.1230125   c-2.2651253,0-4.1014862-1.8362961-4.1014862-4.1014786V11.8736734c0-2.2525625,1.8259468-4.0786405,4.0785751-4.0786405h3.8546944   c0.2751656,0,0.5052986,0.2092395,0.5313301,0.4832358l0.0606575,0.6366348   c0.1023102,1.0751591,1.0051308,1.8962364,2.0852356,1.8962364h3.1676826h11.1129303h3.1676826   c1.0798454,0,1.9829254-0.8210773,2.0852356-1.8962364l0.0606575-0.6366348   c0.0260315-0.2739964,0.2561646-0.4832358,0.5313301-0.4832358h3.8546944c2.2526245,0,4.0785751,1.8260779,4.0785751,4.0786405   V88.1679916z"></path></g></svg>