<?xml version="1.0" encoding="UTF-8"?>
<svg width="14px" height="24px" viewBox="0 0 14 24" version="1.1" xmlns="http://www.w3.org/2000/svg" xmlns:xlink="http://www.w3.org/1999/xlink">
    <title>4FEF5687-6A1D-432D-9F21-06BEA49991F2</title>
    <g id="Page-1" stroke="none" stroke-width="1" fill="none" fill-rule="evenodd">
        <g id="MailWeb" transform="translate(-785.000000, -87.000000)" fill="#1D1D1B">
            <g id="mobile" transform="translate(760.000000, 72.000000)">
                <path d="M37.88,17.24 L26.12,17.24 L26.12,17.04204 C26.12,16.53363 26.53412,16.12 27.04309,16.12 L36.95684,16.12 C37.46588,16.12 37.88,16.53363 37.88,17.04204 L37.88,17.24 Z M26.12,31.80875 L37.88,31.80875 L37.88,18.36 L26.12,18.36 L26.12,31.80875 Z M37.88,36.47796 C37.88,36.98637 37.46588,37.4 36.95684,37.4 L27.04309,37.4 C26.53412,37.4 26.12,36.98637 26.12,36.47796 L26.12,32.92875 L37.88,32.92875 L37.88,36.47796 Z M36.95684,15 L27.04309,15 C25.91651,15 25,15.91609 25,17.04204 L25,36.47796 C25,37.60391 25.91651,38.52 27.04309,38.52 L36.95684,38.52 C38.08349,38.52 39,37.60391 39,36.47796 L39,17.04204 C39,15.91609 38.08349,15 36.95684,15 L36.95684,15 Z M31.9979,36.0763 C32.61656,36.0763 33.1179,35.57489 33.1179,34.9563 C33.1179,34.33764 32.61656,33.8363 31.9979,33.8363 C31.38015,33.8363 30.8779,34.33764 30.8779,34.9563 C30.8779,35.57489 31.38015,36.0763 31.9979,36.0763 L31.9979,36.0763 Z" id="Fill-1"></path>
            </g>
        </g>
    </g>
</svg>