<svg height='100px' width='100px'  fill="#000000" xmlns:dc="http://purl.org/dc/elements/1.1/" xmlns:cc="http://creativecommons.org/ns#" xmlns:rdf="http://www.w3.org/1999/02/22-rdf-syntax-ns#" xmlns:svg="http://www.w3.org/2000/svg" xmlns="http://www.w3.org/2000/svg" xmlns:sodipodi="http://sodipodi.sourceforge.net/DTD/sodipodi-0.dtd" xmlns:inkscape="http://www.inkscape.org/namespaces/inkscape" viewBox="0 0 25.399999 25.399999" version="1.1" x="0px" y="0px"><g transform="translate(0,-271.60002)"><path style="color:#000000;font-style:normal;font-variant:normal;font-weight:normal;font-stretch:normal;font-size:medium;line-height:normal;font-family:sans-serif;font-variant-ligatures:normal;font-variant-position:normal;font-variant-caps:normal;font-variant-numeric:normal;font-variant-alternates:normal;font-feature-settings:normal;text-indent:0;text-align:start;text-decoration:none;text-decoration-line:none;text-decoration-style:solid;text-decoration-color:#000000;letter-spacing:normal;word-spacing:normal;text-transform:none;writing-mode:lr-tb;direction:ltr;text-orientation:mixed;dominant-baseline:auto;baseline-shift:baseline;text-anchor:start;white-space:normal;shape-padding:0;clip-rule:nonzero;display:inline;overflow:visible;visibility:visible;opacity:1;isolation:auto;mix-blend-mode:normal;color-interpolation:sRGB;color-interpolation-filters:linearRGB;solid-color:#000000;solid-opacity:1;vector-effect:none;fill:#000000;fill-opacity:1;fill-rule:evenodd;stroke:none;stroke-width:4;stroke-linecap:round;stroke-linejoin:round;stroke-miterlimit:4;stroke-dasharray:none;stroke-dashoffset:0;stroke-opacity:1;paint-order:stroke fill markers;color-rendering:auto;image-rendering:auto;shape-rendering:auto;text-rendering:auto;enable-background:accumulate" d="M 12.003906 10 C 8.7144763 10 6.0019531 12.712555 6.0019531 16.001953 L 6.0019531 68 C 6.0019531 71.289436 8.7144763 74.001953 12.003906 74.001953 L 36.263672 74.001953 L 30.935547 81.996094 L 25.998047 81.996094 A 2.000504 2.000504 0 0 0 25.998047 85.998047 L 70.001953 85.998047 A 2.000504 2.000504 0 1 0 70.001953 81.996094 L 65.066406 81.996094 L 59.738281 74.001953 L 83.998047 74.001953 C 87.287479 74.001953 90 71.289436 90 68 L 90 16.001953 C 90 12.712555 87.287479 10 83.998047 10 L 12.003906 10 z M 12.003906 14.001953 L 83.998047 14.001953 C 85.140666 14.001953 85.998047 14.859364 85.998047 16.001953 L 85.998047 68 C 85.998047 69.142589 85.140666 70 83.998047 70 L 12.003906 70 C 10.861287 70 10.001953 69.142589 10.001953 68 L 10.001953 16.001953 C 10.001953 14.859364 10.861287 14.001953 12.003906 14.001953 z M 41.068359 74.001953 L 54.931641 74.001953 L 60.257812 81.996094 L 35.738281 81.996094 L 41.068359 74.001953 z " transform="matrix(0.26458332,0,0,0.26458332,0,271.60002)"></path><path style="opacity:1;fill:#000000;fill-opacity:1;fill-rule:evenodd;stroke:none;stroke-width:1.05833328;stroke-linecap:round;stroke-linejoin:round;stroke-miterlimit:4;stroke-dasharray:none;stroke-dashoffset:0;stroke-opacity:1;paint-order:stroke fill markers" d="m 13.229166,288.53337 a 0.52916688,0.52916664 0 0 1 -0.529167,0.52917 0.52916688,0.52916664 0 0 1 -0.529167,-0.52917 0.52916688,0.52916664 0 0 1 0.529167,-0.52916 0.52916688,0.52916664 0 0 1 0.529167,0.52916 z"></path></g></svg>