<?xml version="1.0" encoding="UTF-8" standalone="no"?>
<svg
   xmlns:dc="http://purl.org/dc/elements/1.1/"
   xmlns:cc="http://creativecommons.org/ns#"
   xmlns:rdf="http://www.w3.org/1999/02/22-rdf-syntax-ns#"
   xmlns:svg="http://www.w3.org/2000/svg"
   xmlns="http://www.w3.org/2000/svg"
   xmlns:sodipodi="http://sodipodi.sourceforge.net/DTD/sodipodi-0.dtd"
   xmlns:inkscape="http://www.inkscape.org/namespaces/inkscape"
   height="87.5"
   width="53.825001"
   version="1.1"
   x="0px"
   y="0px"
   viewBox="0 0 51.672001 84"
   enable-background="new 0 0 96 96"
   xml:space="preserve"
   id="svg4"
   sodipodi:docname="noun_Phone_1868153.svg"
   style="fill:#000000"
   inkscape:version="0.92.2 5c3e80d, 2017-08-06"><metadata
     id="metadata10"><rdf:RDF><cc:Work
         rdf:about=""><dc:format>image/svg+xml</dc:format><dc:type
           rdf:resource="http://purl.org/dc/dcmitype/StillImage" /></cc:Work></rdf:RDF></metadata><defs
     id="defs8" /><sodipodi:namedview
     pagecolor="#ffffff"
     bordercolor="#666666"
     borderopacity="1"
     objecttolerance="10"
     gridtolerance="10"
     guidetolerance="10"
     inkscape:pageopacity="0"
     inkscape:pageshadow="2"
     inkscape:window-width="776"
     inkscape:window-height="480"
     id="namedview6"
     showgrid="false"
     inkscape:zoom="2.36"
     inkscape:cx="26.9125"
     inkscape:cy="43.75"
     inkscape:window-x="1680"
     inkscape:window-y="0"
     inkscape:window-maximized="0"
     inkscape:current-layer="svg4" /><path
     d="M 50.173,0 C 33.948,0 17.725,0 1.501,0 1.06,0 0.724,0.161 0.484,0.401 0.469,0.414 0.456,0.427 0.442,0.441 0.429,0.456 0.415,0.468 0.402,0.483 0.161,0.723 0,1.059 0,1.501 0,28.501 0,55.5 0,82.5 0,83.318 0.682,84 1.5,84 c 16.224,0 32.448,0 48.672,0 0.817,0 1.5,-0.682 1.5,-1.5 0,-27 0,-53.999 0,-80.999 C 51.673,0.682 50.989,0 50.173,0 Z M 32.817,76.197 c 0,0.818 -0.684,1.5 -1.5,1.5 -3.653,0 -7.307,0 -10.959,0 -0.818,0 -1.5,-0.682 -1.5,-1.5 0,-0.332 0,-0.666 0,-1 0,-0.441 0.161,-0.777 0.402,-1.018 0.012,-0.016 0.026,-0.027 0.039,-0.041 0.014,-0.014 0.027,-0.027 0.042,-0.039 0.24,-0.24 0.576,-0.402 1.017,-0.402 3.653,0 7.306,0 10.959,0 0.816,0 1.5,0.684 1.5,1.5 0,0.334 0,0.668 0,1 z"
     id="path2"
     inkscape:connector-curvature="0" /></svg>