<?xml version="1.0" encoding="UTF-8"?>
<svg width="25px" height="24px" viewBox="0 0 25 24" version="1.1" xmlns="http://www.w3.org/2000/svg" xmlns:xlink="http://www.w3.org/1999/xlink">
    <title>6BA5ECFC-7D65-41B0-A06F-0D0034E65C22</title>
    <g id="Page-1" stroke="none" stroke-width="1" fill="none" fill-rule="evenodd">
        <g id="MailWeb" transform="translate(-479.000000, -87.000000)" fill="#1D1D1B">
            <g id="desktop" transform="translate(460.000000, 73.000000)">
                <path d="M31.5,31.2619048 C31.8287202,31.2619048 32.0952381,30.9959077 32.0952381,30.6666667 C32.0952381,30.337872 31.8287202,30.0714286 31.5,30.0714286 C31.1712798,30.0714286 30.9047619,30.337872 30.9047619,30.6666667 C30.9047619,30.9959077 31.1712798,31.2619048 31.5,31.2619048 L31.5,31.2619048 Z M42.8095238,16.3809524 L20.1904762,16.3809524 L20.1904762,16.1720238 C20.1904762,15.6308036 20.6301339,15.1904762 21.1705357,15.1904762 L41.8294643,15.1904762 C42.3698661,15.1904762 42.8095238,15.6308036 42.8095238,16.1720238 L42.8095238,16.3809524 Z M20.1904762,28.2857143 L42.8095238,28.2857143 L42.8095238,17.5714286 L20.1904762,17.5714286 L20.1904762,28.2857143 Z M42.8095238,30.8723214 C42.8095238,31.4122768 42.3698661,31.8516369 41.8294643,31.8516369 L21.1705357,31.8516369 C20.6301339,31.8516369 20.1904762,31.4122768 20.1904762,30.8723214 L20.1904762,29.4761905 L42.8095238,29.4761905 L42.8095238,30.8723214 Z M28.8969494,36.0238095 C29.3588542,35.062128 29.427753,33.7436012 29.4276786,33.0421131 L33.5826637,33.0421131 C33.5825893,33.7436012 33.6514881,35.062128 34.1133929,36.0238095 L28.8969494,36.0238095 Z M21.1705357,14 C19.9737351,14 19,14.9744048 19,16.1720238 L19,30.8723214 C19,32.06875 19.9737351,33.0421131 21.1705357,33.0421131 L28.2379464,33.0421131 C28.2379464,33.9966518 28.0806548,35.3454613 27.6026042,35.8495536 C27.4883185,35.9700149 27.3701637,36.0238095 27.2194196,36.0238095 L25.3988095,36.0238095 C25.0700893,36.0238095 24.8035714,36.2903274 24.8035714,36.6190476 C24.8035714,36.9477679 25.0700893,37.2142857 25.3988095,37.2142857 L37.6011905,37.2142857 C37.9299107,37.2142857 38.1964286,36.9477679 38.1964286,36.6190476 C38.1964286,36.2903274 37.9299107,36.0238095 37.6011905,36.0238095 L35.7909226,36.0238095 C35.6401042,36.0238095 35.5220238,35.9700149 35.4077381,35.8495536 C34.9296875,35.3455357 34.7723214,33.9965774 34.7723958,33.0421131 L41.8294643,33.0421131 C43.0262649,33.0421131 44,32.06875 44,30.8723214 L44,16.1720238 C44,14.9744048 43.0262649,14 41.8294643,14 L21.1705357,14 Z" id="Fill-1"></path>
            </g>
        </g>
    </g>
</svg>