<?xml version="1.0" encoding="UTF-8"?>
<svg width="14px" height="14px" viewBox="0 0 14 14" version="1.1" xmlns="http://www.w3.org/2000/svg" xmlns:xlink="http://www.w3.org/1999/xlink">
    <title>D4127913-C704-4726-B6BE-2AD4244DB0EC</title>
    <g id="Page-1" stroke="none" stroke-width="1" fill="none" fill-rule="evenodd">
        <g id="MailWeb" transform="translate(-1115.000000, -90.000000)" fill="#1D1D1B">
            <g id="markdown" transform="translate(1090.000000, 72.000000)">
                <path d="M38.8687478,24.5361406 C38.6963177,24.3670469 38.41927,24.3698359 38.2500664,24.5424297 L32.4374804,30.4728516 L32.4374804,18.4375 C32.4374804,18.196 32.2415892,18 31.9999792,18 C31.7583692,18 31.562478,18.196 31.562478,18.4375 L31.562478,30.5094922 L25.749892,24.5796172 C25.5808525,24.4071328 25.3038595,24.4042344 25.1312653,24.5734375 C24.9586711,24.7425859 24.9559367,25.0195781 25.1250856,25.1921719 L31.6696111,31.8688594 C31.751916,31.9528047 31.8645179,32 31.9820417,32 C32.0996201,32 32.212222,31.9528047 32.2944722,31.8688594 L38.8749822,25.1548203 C39.0440764,24.9822812 39.0412873,24.7052344 38.8687478,24.5361406" id="Fill-1"></path>
            </g>
        </g>
    </g>
</svg>